<svg width="41" height="11" viewBox="0 0 41 11" fill="none" xmlns="http://www.w3.org/2000/svg">
<path d="M3.5 1.625V1H6H8.5V1.625V2.25H9.125H9.75V2.875V3.5H8.5H7.25V2.875V2.25H6H4.75V2.875V3.5H4.125H3.5V5.375V7.25H4.125H4.75V7.875V8.5H6H7.25V7.875V7.25H8.5H9.75V7.875V8.5H9.125H8.5V9.125V9.75H6H3.5V9.125V8.5H2.875H2.25V7.875V7.25H1.625H1V5.375V3.5H1.625H2.25V2.875V2.25H2.875H3.5V1.625Z" fill="#4D50B3"></path>
<path d="M12.25 5.375V1H13.5H14.75V4.75V8.5H17.25H19.75V9.125V9.75H16H12.25V5.375Z" fill="#4D50B3"></path>
<path d="M22.25 1.625V1H25.375H28.5V1.625V2.25H29.125H29.75V5.375V8.5H29.125H28.5V9.125V9.75H25.375H22.25V9.125V8.5H21.625H21V5.375V2.25H21.625H22.25V1.625ZM27.25 5.375V2.25H25.375H23.5V5.375V8.5H25.375H27.25V5.375Z" fill="#4D50B3"></path>
<path d="M32.25 1.625V1H34.75H37.25V1.625V2.25H37.875H38.5V2.875V3.5H37.25H36V2.875V2.25H34.75H33.5V3.5V4.75H36H38.5V5.375V6H39.125H39.75V7.25V8.5H39.125H38.5V9.125V9.75H35.375H32.25V9.125V8.5H31.625H31V7.875V7.25H32.25H33.5V7.875V8.5H35.375H37.25V7.25V6H34.75H32.25V5.375V4.75H31.625H31V3.5V2.25H31.625H32.25V1.625Z" fill="#4D50B3"></path>
<path fill-rule="evenodd" clip-rule="evenodd" d="M2.5 0H9.5V1.25H10.75V4.5H6.25V3.25H5.75V4.5H4.5V6.25H5.75V7.5H6.25V6.25H10.75V9.5H9.5V10.75H2.5V9.5H1.25V8.25H0V2.5H1.25V1.25H2.5V0ZM4.75 8.5V7.25H3.5V3.5H4.75V2.25H7.25V3.5H9.75V2.25H8.5V1H3.5V2.25H2.25V3.5H1V7.25H2.25V8.5H3.5V9.75H8.5V8.5H9.75V7.25H7.25V8.5H4.75ZM11.25 0H15.75V7.5H20V1.25H21.25V0H29.5V1.25H31.25V0H38.25V1.25H39.5V5H40.75V9.5H39.5V10.75H31.25V9.5H29.5V10.75H21.25V9.5H20.75V10.75H11.25V0ZM30.75 6.25H31.25V5.75H30.75V6.25ZM34.5 7V7.5H36.25V7H34.5ZM37.25 6V8.5H33.5V7.25H31V8.5H32.25V9.75H38.5V8.5H39.75V6H38.5V4.75H33.5V2.25H36V3.5H38.5V2.25H37.25V1H32.25V2.25H31V4.75H32.25V6H37.25ZM35 3.25H34.5V3.75H35V3.25ZM14.75 8.5V1H12.25V9.75H19.75V8.5H14.75ZM27.25 2.25V8.5H23.5V2.25H27.25ZM24.5 3.25V7.5H26.25V3.25H24.5ZM22.25 2.25H21V8.5H22.25V9.75H28.5V8.5H29.75V2.25H28.5V1H22.25V2.25Z" fill="#AFFE00"></path>
</svg>
