<svg width="212" height="21" viewBox="0 0 212 21" fill="none" xmlns="http://www.w3.org/2000/svg">
<path d="M209.129 20L211 18V6L203.982 1H162.344L153 6L97.4174 6.17697L59 6L49.6563 1H8.01774L1 6V18L2.8714 20H209.129Z" fill="#0A0C25"></path>
<path d="M209.129 20L211 18V6L203.982 1H162.344L153 6L97.4174 6.17697L59 6L49.6563 1H8.01774L1 6V18L2.8714 20" stroke="#4E50B5"></path>
<g filter="url('#filter0_ii_584_63')">
<path d="M61.8099 4L56 0H102.711L105.965 2.2L108.986 0H155L151.049 4H61.8099Z" fill="#4E50B5"></path>
</g>
<defs>
<filter id="filter0_ii_584_63" x="56" y="0" width="99" height="4" filterUnits="userSpaceOnUse" color-interpolation-filters="sRGB">
<feFlood flood-opacity="0" result="BackgroundImageFix"></feFlood>
<feBlend mode="normal" in="SourceGraphic" in2="BackgroundImageFix" result="shape"></feBlend>
<feColorMatrix in="SourceAlpha" type="matrix" values="0 0 0 0 0 0 0 0 0 0 0 0 0 0 0 0 0 0 127 0" result="hardAlpha"></feColorMatrix>
<feOffset dx="0.8" dy="0.8"></feOffset>
<feComposite in2="hardAlpha" operator="arithmetic" k2="-1" k3="1"></feComposite>
<feColorMatrix type="matrix" values="0 0 0 0 1 0 0 0 0 1 0 0 0 0 1 0 0 0 0.25 0"></feColorMatrix>
<feBlend mode="normal" in2="shape" result="effect1_innerShadow_584_63"></feBlend>
<feColorMatrix in="SourceAlpha" type="matrix" values="0 0 0 0 0 0 0 0 0 0 0 0 0 0 0 0 0 0 127 0" result="hardAlpha"></feColorMatrix>
<feOffset dx="-0.8" dy="-0.8"></feOffset>
<feComposite in2="hardAlpha" operator="arithmetic" k2="-1" k3="1"></feComposite>
<feColorMatrix type="matrix" values="0 0 0 0 0 0 0 0 0 0 0 0 0 0 0 0 0 0 0.3 0"></feColorMatrix>
<feBlend mode="normal" in2="effect1_innerShadow_584_63" result="effect2_innerShadow_584_63"></feBlend>
</filter>
</defs>
</svg>
