<svg width="212" height="21" viewBox="0 0 212 21" fill="none" xmlns="http://www.w3.org/2000/svg">
<path d="M2.8714 0.999982L1 2.99998L1 15L8.01773 20L49.6563 20L59 15L114.583 14.823L153 15L162.344 20L203.982 20L211 15L211 3L209.129 1L2.8714 0.999982Z" fill="#0A0C25"></path>
<path d="M2.8714 0.999982L1 2.99998L1 15L8.01773 20L49.6563 20L59 15L114.583 14.823L153 15L162.344 20L203.982 20L211 15L211 3L209.129 1" stroke="#4E50B5"></path>
<g filter="url('#filter0_ii_584_64')">
<path d="M149.19 17L155 21L108.289 21L105.035 18.8L102.014 21L56 21L59.9507 17L149.19 17Z" fill="#4E50B5"></path>
</g>
<defs>
<filter id="filter0_ii_584_64" x="56" y="17" width="99" height="4" filterUnits="userSpaceOnUse" color-interpolation-filters="sRGB">
<feFlood flood-opacity="0" result="BackgroundImageFix"></feFlood>
<feBlend mode="normal" in="SourceGraphic" in2="BackgroundImageFix" result="shape"></feBlend>
<feColorMatrix in="SourceAlpha" type="matrix" values="0 0 0 0 0 0 0 0 0 0 0 0 0 0 0 0 0 0 127 0" result="hardAlpha"></feColorMatrix>
<feOffset dx="0.8" dy="0.8"></feOffset>
<feComposite in2="hardAlpha" operator="arithmetic" k2="-1" k3="1"></feComposite>
<feColorMatrix type="matrix" values="0 0 0 0 1 0 0 0 0 1 0 0 0 0 1 0 0 0 0.25 0"></feColorMatrix>
<feBlend mode="normal" in2="shape" result="effect1_innerShadow_584_64"></feBlend>
<feColorMatrix in="SourceAlpha" type="matrix" values="0 0 0 0 0 0 0 0 0 0 0 0 0 0 0 0 0 0 127 0" result="hardAlpha"></feColorMatrix>
<feOffset dx="-0.8" dy="-0.8"></feOffset>
<feComposite in2="hardAlpha" operator="arithmetic" k2="-1" k3="1"></feComposite>
<feColorMatrix type="matrix" values="0 0 0 0 0 0 0 0 0 0 0 0 0 0 0 0 0 0 0.3 0"></feColorMatrix>
<feBlend mode="normal" in2="effect1_innerShadow_584_64" result="effect2_innerShadow_584_64"></feBlend>
</filter>
</defs>
</svg>
