<svg xmlns="http://www.w3.org/2000/svg" width="917" height="197" fill="none" viewBox="0 0 917 197">
  <g class="Frame 6">
    <path stroke="#8589FF" d="M901.337 176.216C765.438 65.958 590.222 27.496 460.733 27.496c-148.293 0-321.8 43.59-445.733 148.72" class="Ellipse 75"></path>
    <path stroke="#6E6AE8" d="M97 94.874C209.961 29.181 345.497 1 464.733 1 631.319 1 769.655 63.583 818 94.874" class="Ellipse 76"></path>
    <path fill="#B4FC06" fill-opacity=".6" d="M7.898 178.354c3.115 0 5.64 2.467 5.64 5.509v12.744h1.129v-12.744c0-3.042 2.525-5.509 5.641-5.509h7.898v-1.101h-7.898c-3.116 0-5.641-2.466-5.641-5.508V159h-1.128v12.745c0 3.042-2.526 5.508-5.641 5.508H0v1.101h7.898Zm888 0c3.115 0 5.641 2.467 5.641 5.509v12.744h1.128v-12.744c0-3.042 2.525-5.509 5.641-5.509h7.898v-1.101h-7.898c-3.116 0-5.641-2.466-5.641-5.508V159h-1.128v12.745c0 3.042-2.526 5.508-5.641 5.508H888v1.101h7.898Z" class="Union"></path>
  </g>
</svg>
