<svg width="60" height="60" viewBox="0 0 60 60" fill="none" xmlns="http://www.w3.org/2000/svg">
<path d="M44.9309 36.2872C44.8618 35.6654 44.7927 35.0436 44.6545 34.4217C44.5163 33.5927 44.3782 32.7636 44.1709 31.9345C43.8945 30.9672 43.5491 29.9999 43.2727 28.9636C43.0654 28.2727 42.9963 27.5817 42.72 26.9599C42.3745 25.9927 41.96 24.9563 41.5454 23.989C41.4072 23.5745 41.2 23.1599 40.8545 22.8836C40.8545 22.8145 40.7854 22.7454 40.7163 22.7454C40.7163 22.8145 40.6472 22.8836 40.6472 22.9527C40.5091 23.7127 40.3709 24.4727 40.2327 25.2327C40.0945 26.0617 39.8872 26.8908 39.4727 27.5817C39.1963 28.1345 38.7818 28.4799 38.0909 28.549C37.5382 28.6181 36.9854 28.4799 36.8472 27.9272C36.7091 27.5817 36.64 27.2363 36.5709 26.8217C36.5018 25.8545 36.7091 24.9563 36.9854 23.989C37.4 22.6763 37.6763 21.2945 37.6072 19.9127C37.6072 19.4981 37.5382 19.0145 37.4691 18.5999C37.3309 17.7017 36.9163 16.8727 36.5018 16.1127C36.2254 15.629 35.9491 15.1454 35.5345 14.7999C35.4654 14.7308 35.4654 14.7308 35.3963 14.7308C35.3963 14.7999 35.3963 14.869 35.3963 14.869C35.3963 15.1454 35.3963 15.4908 35.3272 15.7672C35.12 16.9417 34.7054 17.9781 34.0836 19.0145C33.6 19.7745 33.1163 20.4654 32.6327 21.2254C31.9418 22.3999 31.5272 23.5745 31.32 24.8872C31.2509 25.0945 31.2509 25.3708 31.1818 25.6472C31.1818 25.7163 31.0436 25.7854 30.9745 25.7854C30.9054 25.7854 30.7672 25.7163 30.7672 25.6472C30.6982 25.4399 30.6982 25.2327 30.6982 24.9563C30.6982 24.6108 30.7672 24.2654 30.8363 23.989C30.8363 23.3672 30.6982 22.8145 30.56 22.2617C30.3527 21.5017 30.0763 20.8108 29.4545 20.2581C29.04 19.8436 28.6945 19.429 28.4872 18.9454C28.4872 18.8763 28.4182 18.8763 28.3491 18.8072C28.3491 18.8763 28.28 18.9454 28.28 19.0145C28.28 19.6363 28.2109 20.3272 28.0727 20.949C27.7963 22.1927 27.1054 23.229 26.2072 24.1272C25.7927 24.5417 25.3782 24.8872 25.0327 25.3708C24.2727 26.4072 23.5818 27.5817 23.2363 28.8254C23.2363 28.8945 23.2363 28.9636 23.2363 29.0327C23.3745 29.4472 23.4436 29.8617 23.5818 30.2763C23.5818 30.4145 23.6509 30.5527 23.4436 30.6217C23.3054 30.6908 23.1672 30.5527 23.1672 30.4145C23.0291 29.9999 22.8909 29.5163 22.7527 29.1017C22.5454 28.1345 22.2691 27.2363 21.7854 26.4072C21.5091 25.9236 21.2327 25.509 20.7491 25.2327C20.68 25.1636 20.6109 25.1636 20.5418 25.1636C20.5418 25.2327 20.4727 25.3017 20.4727 25.3708C20.4727 26.4072 20.1272 27.3054 19.6436 28.2036C19.3672 28.6872 19.0218 29.2399 18.7454 29.7236C18.2618 30.4836 18.0545 31.2436 17.7782 32.0727C17.4327 33.0399 17.1563 33.9381 16.9491 34.9745C16.7418 36.0108 16.6036 37.1163 16.5345 38.1527C16.5345 38.7054 16.5345 39.2581 16.6036 39.8108C16.6727 40.2945 16.6727 40.7781 16.88 41.2617C17.2254 42.229 17.5709 43.1963 18.1927 44.0254C18.5382 44.509 18.8836 44.9927 19.3672 45.269C20.1272 45.7527 20.9563 46.1672 21.8545 46.4436C22.5454 46.6508 23.3054 46.789 24.0654 46.9963C24.4109 47.0654 24.8254 47.2036 25.1709 47.2036C26 47.2727 26.76 47.2727 27.5891 47.3417C28.0727 47.3417 28.4872 47.4108 28.9709 47.4108C29.8 47.4799 30.56 47.549 31.3891 47.549C32.7709 47.549 34.2218 47.4799 35.6036 47.4108C35.9491 47.4108 36.2945 47.3417 36.64 47.2727C37.4 47.1345 38.2291 46.9272 38.9891 46.7199C40.0945 46.4436 41.2 46.0981 42.0291 45.3381C42.5818 44.8545 43.2036 44.3708 43.6182 43.6799C43.8945 43.2654 44.1018 42.7817 44.3091 42.3672C44.4472 42.0217 44.5854 41.6763 44.7236 41.2617C44.8618 40.8472 44.8618 40.3636 44.9309 39.949C45 39.6036 45 39.189 45 38.8436C45 38.3599 44.9309 37.8763 44.9309 37.3927C45 36.909 44.9309 36.5636 44.9309 36.2872Z" fill="#4D50B3"></path>
<path d="M14.8764 23.9891C15.6364 21.5709 14.3927 18.5309 14.3927 18.5309C14.3927 18.5309 16.7418 20.5345 19.4364 20.88" stroke="#7DF500" stroke-width="0.9395" stroke-miterlimit="10"></path>
<path d="M25.7927 18.8764C25.7927 18.8764 28.0036 16.3891 28.3491 13.5564C28.7636 15.4219 29.3855 16.9419 30.9745 18.6691" stroke="#7DF500" stroke-width="0.9395" stroke-miterlimit="10"></path>
<path d="M8.03638 20.88C8.03638 20.88 11.1455 23.2291 14.8764 24.0582C16.0509 23.9891 17.2946 23.5055 18.4691 22.4C20.9564 19.7055 20.0582 12.3818 20.0582 12.3818C20.0582 12.3818 23.2364 18.6691 28.1418 19.2218C31.8036 19.4291 33.7382 14.3855 34.7746 12.1746C34.2218 16.1818 32.9782 24.4037 32.9782 24.4037C32.9782 24.4037 26.8291 29.7927 16.9491 29.7237C10.6618 23.2982 8.03638 20.88 8.03638 20.88Z" fill="#7DF500"></path>
<path d="M8.17455 22.1236C8.82323 22.1236 9.34909 21.5978 9.34909 20.9491C9.34909 20.3004 8.82323 19.7745 8.17455 19.7745C7.52586 19.7745 7 20.3004 7 20.9491C7 21.5978 7.52586 22.1236 8.17455 22.1236Z" fill="#7DF500"></path>
<path d="M13.4946 18.5999C14.1432 18.5999 14.6691 18.0741 14.6691 17.4254C14.6691 16.7767 14.1432 16.2509 13.4946 16.2509C12.8459 16.2509 12.32 16.7767 12.32 17.4254C12.32 18.0741 12.8459 18.5999 13.4946 18.5999Z" fill="#7DF500"></path>
<path d="M20.2655 14.04C20.9141 14.04 21.44 13.5141 21.44 12.8655C21.44 12.2168 20.9141 11.6909 20.2655 11.6909C19.6168 11.6909 19.0909 12.2168 19.0909 12.8655C19.0909 13.5141 19.6168 14.04 20.2655 14.04Z" fill="#7DF500"></path>
<path d="M28.3491 13.6255C28.9978 13.6255 29.5236 13.0996 29.5236 12.4509C29.5236 11.8022 28.9978 11.2764 28.3491 11.2764C27.7004 11.2764 27.1745 11.8022 27.1745 12.4509C27.1745 13.0996 27.7004 13.6255 28.3491 13.6255Z" fill="#7DF500"></path>
<path d="M34.4982 13.3491C35.1469 13.3491 35.6727 12.8232 35.6727 12.1745C35.6727 11.5259 35.1469 11 34.4982 11C33.8495 11 33.3236 11.5259 33.3236 12.1745C33.3236 12.8232 33.8495 13.3491 34.4982 13.3491Z" fill="#7DF500"></path>
</svg>
