<svg width="15" height="15" viewBox="0 0 15 15" fill="none" xmlns="http://www.w3.org/2000/svg">
<rect width="15" height="15" fill="#4D50B3"></rect>
<path d="M8.31753 13.1011V9.19399H9.60046L9.85316 7.5806H8.31753V6.43374C8.31105 6.20048 8.4536 5.73007 9.07563 5.71452C9.57325 5.71452 9.80133 5.71452 9.85316 5.71452V4.31496C9.432 4.2696 8.46915 4.2061 7.98708 4.31496C7.38449 4.45103 6.68471 4.9953 6.56808 6.12272C6.56808 7.08687 6.56808 7.49637 6.56808 7.5806H5.12964V9.19399H6.56808V13.1011" stroke="#AFFE00" stroke-width="0.6"></path>
<path d="M6.56813 13.0925C3.89305 12.6809 1.8446 10.3691 1.8446 7.57881C1.8446 4.49772 4.34232 2 7.42342 2C10.5045 2 13.0022 4.49772 13.0022 7.57881C13.0022 10.3555 10.9736 12.6585 8.31758 13.0863" stroke="#AFFE00" stroke-width="0.6"></path>
</svg>
