<svg width="60" height="60" viewBox="0 0 60 60" fill="none" xmlns="http://www.w3.org/2000/svg">
<path d="M42.0323 38.4323C41.9598 37.8522 41.8873 37.2721 41.8148 36.692C41.6698 35.8943 41.5247 35.1692 41.3797 34.3715C41.1622 33.5014 40.7996 32.5587 40.5821 31.6885C40.437 31.1084 40.292 30.4558 40.0745 29.8757C39.7844 28.933 39.3493 28.0628 38.9868 27.1927C38.8417 26.8301 38.6967 26.4675 38.3342 26.1775C38.2616 26.105 38.1891 26.105 38.1891 26.0325C38.1891 26.105 38.1166 26.1775 38.1166 26.25C37.9716 26.9751 37.8991 27.6278 37.754 28.3529C37.609 29.078 37.464 29.8757 37.1014 30.5283C36.8114 31.0359 36.4488 31.3985 35.8687 31.471C35.3611 31.5435 34.8535 31.471 34.7085 30.9634C34.636 30.6733 34.4909 30.3108 34.4909 29.9482C34.4184 29.078 34.5635 28.2079 34.8535 27.4102C35.2886 26.1775 35.5061 24.9448 35.4336 23.6395C35.4336 23.2044 35.3611 22.8419 35.3611 22.4068C35.2161 21.6091 34.8535 20.884 34.4184 20.1589C34.2009 19.7238 33.9108 19.2887 33.5483 18.9987C33.4758 18.9987 33.4757 18.9261 33.4032 18.9261C33.4032 18.9987 33.4032 18.9987 33.4032 19.0712C33.4032 19.3612 33.4032 19.6513 33.4032 19.8688C33.2582 20.9565 32.8231 21.8992 32.243 22.8419C31.8079 23.4945 31.3729 24.1471 30.9378 24.8723C30.2852 25.8874 29.9226 27.0477 29.705 28.2079C29.6325 28.4254 29.6325 28.643 29.56 28.8605C29.56 28.933 29.415 29.0055 29.3425 29.0055C29.27 29.0055 29.1975 28.933 29.1975 28.8605C29.1975 28.643 29.1249 28.4254 29.1249 28.2804C29.1249 27.9903 29.1975 27.7003 29.1975 27.3377C29.1975 26.7576 29.0524 26.25 28.9074 25.7424C28.7624 25.0173 28.4723 24.4372 27.8922 23.9296C27.5296 23.567 27.2396 23.2044 27.0221 22.6968C27.0221 22.6243 26.9495 22.6243 26.877 22.5518C26.877 22.6243 26.8045 22.6243 26.8045 22.6968C26.8045 23.277 26.732 23.8571 26.587 24.5097C26.2969 25.6699 25.7168 26.6126 24.8466 27.4102C24.4841 27.7728 24.049 28.1354 23.7589 28.5704C23.0338 29.5131 22.4537 30.6008 22.0911 31.761C22.0911 31.8335 22.0911 31.9061 22.0911 31.9786C22.1636 32.3411 22.3087 32.7037 22.3812 33.1388C22.3812 33.2838 22.4537 33.4288 22.2362 33.4288C22.0911 33.5014 22.0186 33.3563 21.9461 33.2113C21.8011 32.7762 21.6561 32.4137 21.5835 31.9786C21.366 31.1084 21.1485 30.2383 20.7134 29.5131C20.4233 29.078 20.2058 28.7155 19.7707 28.4254C19.6982 28.4254 19.6257 28.3529 19.6257 28.3529C19.6257 28.4254 19.5532 28.4979 19.6257 28.5704C19.6257 29.5131 19.3356 30.3108 18.9005 31.1084C18.6105 31.5435 18.3204 32.0511 18.0304 32.4862C17.5953 33.1388 17.3778 33.9364 17.0877 34.6616C16.7976 35.5317 16.5801 36.4019 16.3626 37.2721C16.145 38.2147 16.0725 39.2299 16 40.1726C16 40.6802 16 41.1878 16.0725 41.6954C16.145 42.1305 16.145 42.6381 16.2901 43.0006C16.5801 43.8708 16.9427 44.7409 17.4503 45.5386C17.7403 45.9737 18.1029 46.4088 18.538 46.6988C19.2631 47.1339 19.9882 47.4965 20.7859 47.7865C21.4385 48.0041 22.1636 48.1491 22.8163 48.2941C23.1788 48.3666 23.4689 48.4391 23.8315 48.5116C24.5566 48.5842 25.2817 48.5842 26.0069 48.6567C26.4419 48.6567 26.877 48.7292 27.3121 48.7292C28.0372 48.8017 28.7624 48.8742 29.4875 48.8017C30.7928 48.8017 32.098 48.7292 33.4032 48.6567C33.6933 48.6567 34.0559 48.5842 34.3459 48.5842C35.071 48.4391 35.7962 48.2941 36.5213 48.0766C37.5365 47.7865 38.5517 47.4965 39.3493 46.7713C39.8569 46.3362 40.437 45.8287 40.7996 45.2485C41.0172 44.886 41.2347 44.4509 41.4522 44.0158C41.5973 43.7258 41.7423 43.3632 41.8148 43.0006C41.8873 42.6381 41.9598 42.203 42.0323 41.8404C42.1049 41.4778 42.1049 41.1878 42.1049 40.8252C42.1049 40.3901 42.0323 39.9551 42.0323 39.4475C42.1049 39.0124 42.0323 38.7223 42.0323 38.4323Z" fill="#4D50B3"></path>
<path d="M38.1166 7.25143C38.1166 7.25143 35.1435 6.5988 34.7809 7.39645C34.4184 8.1941 36.8113 7.83153 37.1014 9.06426C37.3189 10.297 35.9412 14.5753 34.7809 15.0104C33.6207 15.4454 29.705 16.8232 29.56 17.6934C29.4149 18.636 29.7775 18.8536 28.3272 19.2887C26.877 19.7237 18.3929 19.5062 18.1754 21.6816C17.9578 23.857 20.5683 27.9903 24.484 29.6581C28.3998 31.3259 39.2043 34.734 46.3106 33.6463C50.8789 32.4136 45.1504 27.1201 41.3072 24.0746C37.4639 21.029 42.975 19.2887 43.5551 18.201C44.2802 16.8957 43.4101 11.4572 41.3797 8.99175C41.0896 8.7017 40.7996 8.41164 40.437 8.1941C39.2768 7.54148 38.1166 7.25143 38.1166 7.25143Z" fill="#7DF500"></path>
<path d="M27.5296 21.319C27.4571 21.464 26.6594 23.0593 26.6594 23.5669C26.6594 24.0745 29.1974 26.54 29.7775 26.685C30.3576 26.83 29.3424 28.2078 29.995 28.5703C30.6477 28.9329 34.3459 30.4557 34.6359 30.0931C34.926 29.7306 35.1435 28.7879 35.1435 28.7879C35.1435 28.7879 37.4639 29.8031 38.1891 29.513C38.9142 29.223 40.7996 28.1353 41.0171 27.7002C41.2346 27.3376 40.9446 25.3072 40.437 25.5248C39.9294 25.7423 40.0019 26.1049 39.2043 26.3949C38.4066 26.685 37.6815 26.54 37.1739 26.3949C36.6663 26.1774 36.3762 26.1049 36.3762 26.1049L36.4487 25.3072C36.4487 25.3072 32.678 23.5669 32.3155 23.6394C31.9529 23.7119 31.9529 24.7996 31.1553 24.5096C30.3576 24.2195 28.7623 22.9143 28.4723 21.8266C28.2547 21.1015 27.9647 20.8114 27.7471 20.7389C27.6746 20.8114 27.5296 21.319 27.5296 21.319Z" fill="#474E9E"></path>
</svg>
