<svg width="60" height="60" viewBox="0 0 60 60" fill="none" xmlns="http://www.w3.org/2000/svg">
<path d="M44.0098 26.6979C44.0098 26.6979 48.3259 25.9576 54.8887 21.5156C55.2435 23.281 54.7705 25.5589 53.1741 27.2674C50.9865 29.5453 47.3208 30.1717 47.3208 30.1717C47.3208 30.1717 50.4544 30.0578 53.9427 28.0646C53.9427 29.6592 53.2332 31.3107 51.4004 32.3927C49.6266 33.133 47.8529 33.5886 47.4981 33.5886C48.5033 33.6456 51.0456 33.5886 52.1099 32.9052C52.9967 32.3358 52.642 33.7025 51.1639 34.9554C50.3361 35.6387 49.5675 35.9804 47.9711 36.436C46.4339 36.8916 45.6653 37.0624 47.6164 36.8916C49.5675 36.7207 49.0945 36.7207 49.4493 36.8346C49.804 36.8916 49.1536 37.9167 47.439 38.8848C46.02 39.682 44.5419 39.4543 44.5419 39.4543C43.9507 39.4543 43.3594 39.1126 43.0638 38.6C42.1178 36.6638 39.9893 32.3358 40.1667 32.1649C40.2849 31.9941 40.7579 29.3745 41.0536 27.8938C41.1718 27.3813 41.6448 26.9826 42.1769 26.9826C42.709 26.9257 43.3003 26.8687 44.0098 26.6979Z" fill="#7DF500"></path>
<path d="M15.9902 26.6979C15.9902 26.6979 11.6741 25.9576 5.11127 21.5156C4.75652 23.281 5.22952 25.5589 6.82589 27.2674C9.0135 29.5453 12.6792 30.1717 12.6792 30.1717C12.6792 30.1717 9.54562 30.0578 6.05727 28.0646C6.05727 29.6592 6.76676 31.3107 8.59963 32.3927C10.3734 33.133 12.1471 33.5886 12.5019 33.5886C11.4967 33.6456 8.95437 33.5886 7.89013 32.9052C7.00326 32.3358 7.35801 33.7025 8.83612 34.9554C9.66387 35.6387 10.4325 35.9804 12.0289 36.436C13.6252 36.8916 14.3347 37.0624 12.3836 36.8916C10.4325 36.7207 10.9055 36.7207 10.5507 36.8346C10.196 36.8916 10.8464 37.9167 12.561 38.8848C13.98 39.682 15.4581 39.4543 15.4581 39.4543C16.0493 39.4543 16.6406 39.1126 16.9362 38.6C17.8822 36.6638 20.0107 32.3358 19.8333 32.1649C19.7151 31.9941 19.2421 29.3745 18.9464 27.8938C18.8282 27.3813 18.3552 26.9826 17.8231 26.9826C17.2909 26.9257 16.6406 26.8687 15.9902 26.6979Z" fill="#7DF500"></path>
<path d="M43.5156 34.1719C43.4374 33.5469 43.3593 32.9219 43.2812 32.2969C43.1249 31.4375 42.9687 30.6563 42.8124 29.7969C42.5781 28.7813 42.1874 27.8437 41.9531 26.9062C41.7968 26.2812 41.6406 25.5781 41.4062 24.9531C41.0937 23.9375 40.6249 23 40.2343 21.9844C40.0781 21.5938 39.9218 21.125 39.5312 20.8906C39.4531 20.8125 39.3749 20.8125 39.3749 20.7344C39.3749 20.8125 39.2968 20.8906 39.2968 20.9687C39.1406 21.75 39.0624 22.4531 38.9062 23.2344C38.7499 24.0156 38.5937 24.875 38.2031 25.5781C37.8906 26.125 37.4999 26.5156 36.8749 26.5937C36.3281 26.6719 35.7812 26.5937 35.6249 26.0469C35.5468 25.7344 35.3906 25.3437 35.3906 24.9531C35.3124 24.0156 35.4687 23.0781 35.7812 22.1406C36.2499 20.8125 36.4843 19.4844 36.4062 18.0781C36.4062 17.6094 36.3281 17.2188 36.3281 16.75C36.1718 15.8906 35.7812 15.0312 35.3124 14.3281C35.0781 13.8594 34.7656 13.3906 34.3749 13.0781C34.2968 13.0781 34.2968 13 34.2187 13C34.2187 13.0781 34.2187 13.0781 34.2187 13.1563C34.2187 13.4688 34.2187 13.7812 34.2187 14.0937C34.0624 15.2656 33.5937 16.2813 32.9687 17.2969C32.4999 18 32.0312 18.7031 31.5624 19.4844C30.8593 20.6562 30.4687 21.8281 30.2343 23.0781C30.1562 23.3125 30.1562 23.5469 30.0781 23.7812C30.0781 23.8594 29.9218 23.9375 29.8437 23.9375C29.7656 23.9375 29.6874 23.8594 29.6874 23.7812C29.6874 23.5469 29.6093 23.3125 29.6093 23.1562C29.6093 22.8437 29.6874 22.5312 29.6874 22.1406C29.6874 21.5156 29.5312 20.9687 29.3749 20.4219C29.2187 19.6406 28.9062 19.0156 28.2812 18.4688C27.8906 18.0781 27.5781 17.6094 27.2656 17.1406C27.2656 17.0625 27.1874 17.0625 27.1093 16.9844C27.1093 17.0625 27.0312 17.0625 27.0312 17.1406C27.0312 17.7656 26.9531 18.3906 26.7968 19.0938C26.4843 20.3438 25.8593 21.3594 24.9218 22.2187C24.5312 22.6094 24.0624 23 23.7499 23.4687C22.9687 24.4844 22.3437 25.6562 21.9531 26.9062C21.9531 26.9844 21.9531 27.0625 21.9531 27.1406C22.0312 27.5313 22.1874 27.9219 22.2656 28.3906C22.2656 28.5469 22.3437 28.7031 22.1093 28.7031C21.9531 28.7813 21.8749 28.625 21.7968 28.4687C21.6406 28 21.4843 27.6094 21.4062 27.1406C21.1718 26.2031 20.9374 25.2656 20.4687 24.4844C20.1562 24.0156 19.9218 23.625 19.4531 23.3125C19.3749 23.3125 19.2968 23.2344 19.2968 23.2344C19.2968 23.3125 19.2187 23.3906 19.2968 23.4687C19.2968 24.4844 18.9843 25.4219 18.5156 26.2812C18.2031 26.8281 17.8906 27.2969 17.5781 27.7656C17.1093 28.4687 16.8749 29.3281 16.5624 30.1094C16.2499 31.0469 16.0156 31.9844 15.7812 32.9219C15.5468 33.9375 15.4687 35.0313 15.3906 36.0469C15.3906 36.5937 15.3906 37.1406 15.4687 37.6875C15.5468 38.1563 15.5468 38.7031 15.7031 39.0938C16.0156 40.0313 16.4062 40.9688 17.0312 41.8281C17.3437 42.2969 17.7343 42.7656 18.2031 43.0781C18.9843 43.5469 19.7656 43.9375 20.6249 44.25C21.3281 44.4844 22.1093 44.6406 22.8124 44.7969C23.2031 44.875 23.5937 44.9531 23.9062 45.0312C24.6874 45.1094 25.4687 45.1094 26.3281 45.1875C26.7968 45.1875 27.2656 45.2656 27.7343 45.2656C28.5156 45.3438 29.2968 45.4219 30.1562 45.3438C31.5624 45.3438 32.9687 45.2656 34.3749 45.1875C34.6874 45.1875 35.0781 45.1094 35.3906 45.1094C36.1718 44.9531 36.9531 44.7969 37.7343 44.5625C38.8281 44.25 39.9218 43.9375 40.7812 43.1563C41.3281 42.6875 41.9531 42.1406 42.3437 41.5156C42.5781 41.125 42.8124 40.6563 43.0468 40.1875C43.2031 39.875 43.3593 39.4844 43.4374 39.0938C43.5156 38.7031 43.5937 38.2344 43.6718 37.7656C43.7499 37.375 43.7499 37.0625 43.7499 36.6719C43.7499 36.2031 43.6718 35.6562 43.6718 35.1875C43.5937 34.7969 43.5937 34.4844 43.5156 34.1719Z" fill="#4D50B3"></path>
</svg>
