<svg width="612" height="481" viewBox="0 0 612 481" fill="none" xmlns="http://www.w3.org/2000/svg">
<path d="M0 0H612V481H0V0Z" fill="#AFFE00"></path>
<path fill-rule="evenodd" clip-rule="evenodd" d="M11.9902 15H22.7402V16.75H24.4902V22.25H22.7402V24H20.9902V25.5H24.4902V29.25H10.2402V23.75H11.9902V22H13.7402V20.5H10.2402V16.75H11.9902V15ZM15.7402 20.25H17.2402V18.75H15.7402V20.25ZM19.9902 17.75V19.5H18.2402V21.25H14.7402V23H12.9902V24.75H11.2402V28.25H23.4902V26.5H16.4902V24.75H19.9902V23H21.7402V21.25H23.4902V17.75H21.7402V16H12.9902V17.75H11.2402V19.5H14.7402V17.75H19.9902ZM28.0202 15H35.2702V16.75H37.0202V18.5H38.7702V25.75H37.0202V27.5H35.2702V29.25H28.0202V27.5H26.2702V25.75H24.5202V18.5H26.2702V16.75H28.0202V15ZM29.0202 17.75H27.2702V19.5H25.5202V24.75H27.2702V26.5H29.0202V28.25H34.2702V26.5H36.0202V24.75H37.7702V19.5H36.0202V17.75H34.2702V16H29.0202V17.75ZM34.2702 26.5V19.5H32.5202V17.75H29.0202V24.75H30.7702V26.5H34.2702ZM33.2702 25.5V20.5H31.5202V18.75H30.0202V23.75H31.7702V25.5H33.2702ZM40.5502 15H51.3002V16.75H53.0502V22.25H51.3002V24H49.5502V25.5H53.0502V29.25H38.8002V23.75H40.5502V22H42.3002V20.5H38.8002V16.75H40.5502V15ZM44.3002 20.25H45.8002V18.75H44.3002V20.25ZM48.5502 17.75V19.5H46.8002V21.25H43.3002V23H41.5502V24.75H39.8002V28.25H52.0502V26.5H45.0502V24.75H48.5502V23H50.3002V21.25H52.0502V17.75H50.3002V16H41.5502V17.75H39.8002V19.5H43.3002V17.75H48.5502ZM54.8302 15H67.3302V18.75H65.5802V22H67.3302V27.5H65.5802V29.25H54.8302V27.5H53.0802V23.75H56.5802V20.25H58.3302V18.75H54.8302V15ZM61.0802 17.75V19.5H59.3302V21.25H57.5802V23H62.8302V26.5H57.5802V24.75H54.0802V26.5H55.8302V28.25H64.5802V26.5H66.3302V23H64.5802V21.25H62.8302V19.5H64.5802V17.75H66.3302V16H55.8302V17.75H61.0802ZM58.5802 25.5H61.8302V24H58.5802V25.5ZM77.8602 15H81.6102V18.75H79.8602V20.5H78.1102V22.25H76.3602V24H74.6102V25.75H72.8602V27.5H71.1102V29.25H67.3602V25.5H69.1102V23.75H70.8602V22H72.6102V20.25H74.3602V18.5H76.1102V16.75H77.8602V15ZM78.8602 17.75H77.1102V19.5H75.3602V21.25H73.6102V23H71.8602V24.75H70.1102V26.5H68.3602V28.25H70.1102V26.5H71.8602V24.75H73.6102V23H75.3602V21.25H77.1102V19.5H78.8602V17.75H80.6102V16H78.8602V17.75ZM85.1402 15H92.3902V16.75H94.1402V18.5H95.8902V25.75H94.1402V27.5H92.3902V29.25H85.1402V27.5H83.3902V25.75H81.6402V18.5H83.3902V16.75H85.1402V15ZM86.1402 17.75H84.3902V19.5H82.6402V24.75H84.3902V26.5H86.1402V28.25H91.3902V26.5H93.1402V24.75H94.8902V19.5H93.1402V17.75H91.3902V16H86.1402V17.75ZM91.3902 26.5V19.5H89.6402V17.75H86.1402V24.75H87.8902V26.5H91.3902ZM90.3902 25.5V20.5H88.6402V18.75H87.1402V23.75H88.8902V25.5H90.3902ZM97.6702 15H106.67V16.75H108.42V22H110.17V27.5H108.42V29.25H97.6702V27.5H95.9202V16.75H97.6702V15ZM105.67 23V21.25H107.42V17.75H105.67V16H98.6702V17.75H96.9202V21.25H98.6702V23H96.9202V26.5H98.6702V28.25H107.42V26.5H109.17V23H105.67ZM98.6702 26.5H105.67V24.75H102.17V23H98.6702V26.5ZM99.6702 25.5H101.17V24H99.6702V25.5ZM105.67 17.75H100.42V19.5H102.17V21.25H105.67V17.75ZM104.67 18.75H103.17V20.25H104.67V18.75ZM120.7 15H124.45V18.75H122.7V20.5H120.95V22.25H119.2V24H117.45V25.75H115.7V27.5H113.95V29.25H110.2V25.5H111.95V23.75H113.7V22H115.45V20.25H117.2V18.5H118.95V16.75H120.7V15ZM121.7 17.75H119.95V19.5H118.2V21.25H116.45V23H114.7V24.75H112.95V26.5H111.2V28.25H112.95V26.5H114.7V24.75H116.45V23H118.2V21.25H119.95V19.5H121.7V17.75H123.45V16H121.7V17.75ZM127.98 15H135.23V16.75H136.98V18.5H138.73V25.75H136.98V27.5H135.23V29.25H127.98V27.5H126.23V25.75H124.48V18.5H126.23V16.75H127.98V15ZM128.98 17.75H127.23V19.5H125.48V24.75H127.23V26.5H128.98V28.25H134.23V26.5H135.98V24.75H137.73V19.5H135.98V17.75H134.23V16H128.98V17.75ZM134.23 26.5V19.5H132.48V17.75H128.98V24.75H130.73V26.5H134.23ZM133.23 25.5V20.5H131.48V18.75H129.98V23.75H131.73V25.5H133.23ZM140.51 15H149.51V16.75H151.26V22H153.01V27.5H151.26V29.25H140.51V27.5H138.76V16.75H140.51V15ZM148.51 23V21.25H150.26V17.75H148.51V16H141.51V17.75H139.76V21.25H141.51V23H139.76V26.5H141.51V28.25H150.26V26.5H152.01V23H148.51ZM141.51 26.5H148.51V24.75H145.01V23H141.51V26.5ZM142.51 25.5H144.01V24H142.51V25.5ZM148.51 17.75H143.26V19.5H145.01V21.25H148.51V17.75ZM147.51 18.75H146.01V20.25H147.51V18.75Z" fill="#4D50B3"></path>
<path fill-rule="evenodd" clip-rule="evenodd" d="M442.75 453H447.25V460.5H449V455.5H450.25V454.25H451.5V453H457.25V454.25H458.5V455.5H459.75V461.25H458.5V462.5H457.25V463.75H451.5V462.5H450.25V461.25H449.75V463.75H440.25V460.5H442.75V457.5H441.5V454.25H442.75V453ZM443.75 461.5H441.25V462.75H448.75V461.5H446.25V454H443.75V455.25H442.5V456.5H443.75V461.5ZM452.5 455.25H451.25V456.5H450V460.25H451.25V461.5H452.5V462.75H456.25V461.5H457.5V460.25H458.75V456.5H457.5V455.25H456.25V454H452.5V455.25ZM456.25 461.5V456.5H455V455.25H452.5V460.25H453.75V461.5H456.25ZM455.25 460.5V457.5H454V456.25H453.5V459.25H454.75V460.5H455.25ZM462.75 453H467.25V455.5H469V453H473.5V455.5H478.5V456.75H479.75V463.75H475.25V458.75H473.5V463.75H469V458.75H467.25V463.75H462.75V458.75H460.25V455.5H462.75V453ZM463.75 456.5H461.25V457.75H463.75V462.75H466.25V457.75H468.75V456.5H466.25V454H463.75V456.5ZM472.5 457.75H476.25V462.75H478.75V457.75H477.5V456.5H472.5V454H470V462.75H472.5V457.75ZM490.25 455.5H498.5V456.75H499V455.5H508.5V456.75H509V455.5H518.5V456.75H519.75V463.75H515.25V458.75H513.5V463.75H505.25V458.75H503.5V463.75H490.25V462.5H489V459.25H490.25V455.5ZM496.25 457.75V459H491.25V460.25H490V461.5H491.25V462.75H498.75V457.75H497.5V456.5H491.25V457.75H496.25ZM502.5 457.75H506.25V462.75H508.75V457.75H507.5V456.5H500V462.75H502.5V457.75ZM512.5 457.75H516.25V462.75H518.75V457.75H517.5V456.5H510V462.75H512.5V457.75ZM496.25 460.25V461.5H492.5V460.25H496.25ZM521.5 455.5H522.75V453H527.25V460.5H529.75V463.75H520.25V460.5H522.75V458.75H521.5V455.5ZM523.75 461.5H521.25V462.75H528.75V461.5H526.25V456.5H522.5V457.75H523.75V461.5ZM530.25 455.5H534.75V459.25H535.25V455.5H539.75V456.75H540.25V455.5H548.5V456.75H549.75V461.25H548.5V463.75H540.25V462.5H539V461.25H538.5V462.5H537.25V463.75H532.75V462.5H531.5V461.25H530.25V455.5ZM542.5 461.5V460.25H548.75V457.75H547.5V456.5H541.25V457.75H540V461.5H541.25V462.75H547.5V461.5H542.5ZM536.25 460.25H533.75V456.5H531.25V460.25H532.5V461.5H533.75V462.75H536.25V461.5H537.5V460.25H538.75V456.5H536.25V460.25ZM546.25 457.75V459H542.5V457.75H546.25ZM550.25 455.5H559.75V456.75H560.25V455.5H568.5V459.25H570.25V455.5H578.5V456.75H579.75V463.75H570.25V462.5H568.5V463.75H559V460.5H560.25V460H559V458.75H556V460H554.75V463.75H550.25V455.5ZM553.75 459H555V457.75H558.75V456.5H555V457.75H553.75V456.5H551.25V462.75H553.75V459ZM566.25 460.25V461.5H560V462.75H567.5V461.5H568.75V460.25H567.5V459H562.5V457.75H567.5V456.5H561.25V457.75H560V459H561.25V460.25H566.25ZM576.25 457.75V459H571.25V460.25H570V461.5H571.25V462.75H578.75V457.75H577.5V456.5H571.25V457.75H576.25ZM576.25 460.25V461.5H572.5V460.25H576.25ZM580.25 455.5H593.5V459.25H595.25V455.5H599.75V463.75H598.5V465H590.25V461.25H589V458.75H586V460H584.75V463.75H580.25V455.5ZM583.75 459H585V457.75H588.75V456.5H585V457.75H583.75V456.5H581.25V462.75H583.75V459ZM596.25 461.5V462.75H591.25V464H597.5V462.75H598.75V456.5H596.25V460.25H592.5V456.5H590V460.25H591.25V461.5H596.25ZM523.75 455.25H526.25V454H523.75V455.25Z" fill="#4D50B3"></path>
<path d="M164 43H11V458H84.5L89 462.5H136.5L141 458H250.5L260.5 468H417L449 436H600V23.5H532L525.5 18H477L469.5 23.5H363L353 13.5H195L164 43Z" fill="#0A0C25"></path>
<path d="M40.1681 471.5L37.6792 463.5H64.3208L61.8319 471.5H40.1681Z" stroke="#4D50B3"></path>
<path d="M186.168 471.5L183.679 463.5H210.321L207.832 471.5H186.168Z" stroke="#4D50B3"></path>
</svg>
