<svg width="10" height="10" viewBox="0 0 10 10" fill="none" xmlns="http://www.w3.org/2000/svg">
<path fill-rule="evenodd" clip-rule="evenodd" d="M6.41611 0H3.58413V2.52572L1.41599 1.26282L0 3.73718L2.168 5L0 6.26282L1.41599 8.73718L3.58413 7.47428V10H6.41611V7.47445L8.58401 8.73718L10 6.26282L7.832 5L10 3.73718L8.58401 1.26282L6.41611 2.52555V0ZM8.37669 2.0434L5.84971 3.51528V0.571429H4.15052V3.51547L1.62331 2.04341L0.773712 3.52803L3.3008 5L0.773713 6.47197L1.62331 7.95659L4.15052 6.48453V9.42857H5.84971V6.48472L8.37669 7.9566L9.22629 6.47197L6.6992 5L9.22629 3.52803L8.37669 2.0434Z" fill="#4D50B3"></path>
</svg>
