<svg width="214" height="35" viewBox="0 0 214 35" fill="none" xmlns="http://www.w3.org/2000/svg">
<path d="M197.754 1H16.9508C16.4007 1 15.8749 1.22661 15.4971 1.62649L1.79767 16.1265C1.06938 16.8973 1.06938 18.1027 1.79767 18.8735L15.4971 33.3735C15.8749 33.7734 16.4007 34 16.9508 34H197.754C198.333 34 198.884 33.7489 199.263 33.3117L211.86 18.8117C212.514 18.0593 212.514 16.9407 211.86 16.1883L199.263 1.68834C198.884 1.25109 198.333 1 197.754 1Z" fill="#0D102E" stroke="#4F51B6" stroke-width="0.5"></path>
<path d="M26 1H17.3087C16.7553 1 16.2266 1.22933 15.8484 1.63342L2.27889 16.1334C1.55928 16.9024 1.55928 18.0976 2.27889 18.8666L15.8484 33.3666C16.2266 33.7707 16.7553 34 17.3087 34H26" stroke="#4E4FB9" stroke-width="2"></path>
<path d="M187 34L197.059 34C197.621 34 198.157 33.7634 198.536 33.3482L211.77 18.8482C212.467 18.0845 212.467 16.9155 211.77 16.1518L198.536 1.65177C198.157 1.23656 197.621 0.999998 197.059 0.999998L187 0.999998" stroke="#4E50B5" stroke-width="2"></path>
</svg>
