<svg width="468" height="52" viewBox="0 0 468 52" fill="none" xmlns="http://www.w3.org/2000/svg">
<path d="M464 2L0 8V52H464L467.969 48L464 2Z" fill="#666AED"></path>
<path d="M156 0H468V48H156V0Z" fill="#05051A"></path>
<path d="M179 10.75H180.75V9H198.25V10.75H200V23H196.5V21.25H194.75V14.25H184.25V21.25H182.5V23H179V10.75ZM179 24.75H182.5V26.5H184.25V33.5H194.75V26.5H196.5V24.75H200V37H198.25V38.75H180.75V37H179V24.75ZM180.75 37H182.5V35.25H180.75V37ZM194.75 14.25H196.5V12.5H194.75V14.25ZM180.75 12.5H182.5V10.75H180.75V12.5ZM182.5 35.25H184.25V33.5H182.5V35.25ZM182.5 14.25H184.25V12.5H182.5V14.25ZM194.75 35.25H196.5V33.5H194.75V35.25ZM196.5 37H198.25V35.25H196.5V37ZM196.5 12.5H198.25V10.75H196.5V12.5Z" fill="#AEFB07"></path>
<path d="M203.507 10.75H205.257V9H222.757V10.75H224.507V23H221.007V24.75H224.507V37H222.757V38.75H205.257V37H203.507V24.75H207.007V23H203.507V10.75ZM208.757 21.25H219.257V14.25H208.757V21.25ZM208.757 33.5H219.257V26.5H208.757V33.5ZM205.257 37H207.007V35.25H205.257V37ZM205.257 12.5H207.007V10.75H205.257V12.5ZM207.007 35.25H208.757V33.5H207.007V35.25ZM221.007 12.5H222.757V10.75H221.007V12.5ZM207.007 26.5H208.757V24.75H207.007V26.5ZM207.007 23H208.757V21.25H207.007V23ZM207.007 14.25H208.757V12.5H207.007V14.25ZM219.257 35.25H221.007V33.5H219.257V35.25ZM219.257 26.5H221.007V24.75H219.257V26.5ZM219.257 23H221.007V21.25H219.257V23ZM219.257 14.25H221.007V12.5H219.257V14.25ZM221.007 37H222.757V35.25H221.007V37Z" fill="#AEFB07"></path>
<path d="M236.764 33.5H240.264V37H236.764V33.5Z" fill="#AEFB07"></path>
<path d="M252.521 10.75H254.271V9H271.771V10.75H273.521V23H270.021V21.25H268.271V14.25H257.771V21.25H256.021V23H252.521V10.75ZM252.521 24.75H256.021V26.5H257.771V33.5H268.271V26.5H270.021V24.75H273.521V37H271.771V38.75H254.271V37H252.521V24.75ZM254.271 37H256.021V35.25H254.271V37ZM268.271 14.25H270.021V12.5H268.271V14.25ZM254.271 12.5H256.021V10.75H254.271V12.5ZM256.021 35.25H257.771V33.5H256.021V35.25ZM256.021 14.25H257.771V12.5H256.021V14.25ZM268.271 35.25H270.021V33.5H268.271V35.25ZM270.021 37H271.771V35.25H270.021V37ZM270.021 12.5H271.771V10.75H270.021V12.5Z" fill="#AEFB07"></path>
<path d="M277.027 10.75H278.777V9H296.277V10.75H298.027V23H294.527V24.75H298.027V37H296.277V38.75H278.777V37H277.027V24.75H280.527V23H277.027V10.75ZM282.277 21.25H292.777V14.25H282.277V21.25ZM282.277 33.5H292.777V26.5H282.277V33.5ZM278.777 37H280.527V35.25H278.777V37ZM278.777 12.5H280.527V10.75H278.777V12.5ZM280.527 35.25H282.277V33.5H280.527V35.25ZM294.527 12.5H296.277V10.75H294.527V12.5ZM280.527 26.5H282.277V24.75H280.527V26.5ZM280.527 23H282.277V21.25H280.527V23ZM280.527 14.25H282.277V12.5H280.527V14.25ZM292.777 35.25H294.527V33.5H292.777V35.25ZM292.777 26.5H294.527V24.75H292.777V26.5ZM292.777 23H294.527V21.25H292.777V23ZM292.777 14.25H294.527V12.5H292.777V14.25ZM294.527 37H296.277V35.25H294.527V37Z" fill="#AEFB07"></path>
<path d="M305.034 23H306.784V21.25H317.284V23H319.034V24.75H317.284V26.5H306.784V24.75H305.034V23Z" fill="#AEFB07"></path>
<path d="M326.041 10.75H327.791V9H345.291V10.75H347.041V23H343.541V21.25H341.791V14.25H331.291V21.25H329.541V23H326.041V10.75ZM326.041 24.75H329.541V26.5H331.291V33.5H341.791V26.5H343.541V24.75H347.041V37H345.291V38.75H327.791V37H326.041V24.75ZM327.791 37H329.541V35.25H327.791V37ZM341.791 14.25H343.541V12.5H341.791V14.25ZM327.791 12.5H329.541V10.75H327.791V12.5ZM329.541 35.25H331.291V33.5H329.541V35.25ZM329.541 14.25H331.291V12.5H329.541V14.25ZM341.791 35.25H343.541V33.5H341.791V35.25ZM343.541 37H345.291V35.25H343.541V37ZM343.541 12.5H345.291V10.75H343.541V12.5Z" fill="#AEFB07"></path>
<path d="M383.805 33.5H387.305V37H383.805V33.5Z" fill="#AEFB07"></path>
<path d="M399.562 9H418.812V10.75H420.562V23H417.062V24.75H420.562V37H418.812V38.75H399.562V37H401.312V35.25H403.062V33.5H415.312V26.5H404.812V24.75H403.062V23H404.812V21.25H415.312V14.25H403.062V12.5H401.312V10.75H399.562V9ZM415.312 35.25H417.062V33.5H415.312V35.25ZM415.312 26.5H417.062V24.75H415.312V26.5ZM415.312 23H417.062V21.25H415.312V23ZM415.312 14.25H417.062V12.5H415.312V14.25ZM417.062 37H418.812V35.25H417.062V37ZM417.062 12.5H418.812V10.75H417.062V12.5Z" fill="#AEFB07"></path>
<path d="M439.818 12.5H441.568V10.75H443.318V9H445.068V23H441.568V21.25H439.818V12.5ZM439.818 26.5H441.568V24.75H445.068V38.75H443.318V37H441.568V35.25H439.818V26.5Z" fill="#AEFB07"></path>
<path d="M350 10.7647H351.75V9H369.25V10.7647H371V23.1176H367.5V24.8824H371V37.2353H369.25V39H351.75V37.2353H353.5V35.4706H355.25V33.7059H365.75V26.6471H355.25V24.8824H353.5V23.1176H350V10.7647ZM355.25 21.3529H365.75V14.2941H355.25V21.3529ZM351.75 12.5294H353.5V10.7647H351.75V12.5294ZM353.5 23.1176H355.25V21.3529H353.5V23.1176ZM353.5 14.2941H355.25V12.5294H353.5V14.2941ZM365.75 35.4706H367.5V33.7059H365.75V35.4706ZM365.75 26.6471H367.5V24.8824H365.75V26.6471ZM365.75 23.1176H367.5V21.3529H365.75V23.1176ZM365.75 14.2941H367.5V12.5294H365.75V14.2941ZM367.5 37.2353H369.25V35.4706H367.5V37.2353ZM367.5 12.5294H369.25V10.7647H367.5V12.5294Z" fill="#AEFB07"></path>
<path fill-rule="evenodd" clip-rule="evenodd" d="M467 1H157V47H467V1ZM156 0V48H468V0H156Z" fill="#8589FF"></path>
<path d="M2 2H157V47L154 50H2V2Z" fill="#05051A"></path>
<path fill-rule="evenodd" clip-rule="evenodd" d="M156 3H3V49H153.586L156 46.5858V3ZM157 47L154 50H2V2H157V47Z" fill="#8589FF"></path>
<path d="M0 4.10909L2 2V50L0 52V4.10909Z" fill="#8589FF"></path>
<path d="M154 2.10909L156 0L156.5 48L154 50V2.10909Z" fill="#8589FF"></path>
<path d="M26 22.625V22H29.75H33.5V22.625V23.25H32.25H31V27V30.75H29.75H28.5V27V23.25H27.25H26V22.625Z" fill="#8589FF"></path>
<path d="M37.25 25.125V24.5H39.125H41V27V29.5H42.25H43.5V30.125V30.75H39.75H36V30.125V29.5H37.25H38.5V27.625V25.75H37.875H37.25V25.125ZM38.5 22.625V22H39.75H41V22.625V23.25H39.75H38.5V22.625Z" fill="#8589FF"></path>
<path d="M44.75 27.625V24.5H48.5H52.25V25.125V25.75H52.875H53.5V28.25V30.75H52.25H51V28.25V25.75H50.375H49.75V28.25V30.75H48.5H47.25V28.25V25.75H46.625H46V28.25V30.75H45.375H44.75V27.625Z" fill="#8589FF"></path>
<path d="M56 25.125V24.5H59.125H62.25V25.125V25.75H62.875H63.5V27V28.25H60.375H57.25V28.875V29.5H59.75H62.25V30.125V30.75H59.125H56V30.125V29.5H55.375H54.75V27.625V25.75H55.375H56V25.125ZM61 26.375V25.75H59.125H57.25V26.375V27H59.125H61V26.375Z" fill="#8589FF"></path>
<path d="M74.75 26.375V22H78.5H82.25V22.625V23.25H82.875H83.5V25.125V27H82.875H82.25V27.625V28.25H79.75H77.25V29.5V30.75H76H74.75V26.375ZM81 25.125V23.25H79.125H77.25V25.125V27H79.125H81V25.125Z" fill="#8589FF"></path>
<path d="M86 25.125V24.5H89.125H92.25V25.125V25.75H92.875H93.5V27V28.25H90.375H87.25V28.875V29.5H89.75H92.25V30.125V30.75H89.125H86V30.125V29.5H85.375H84.75V27.625V25.75H85.375H86V25.125ZM91 26.375V25.75H89.125H87.25V26.375V27H89.125H91V26.375Z" fill="#8589FF"></path>
<path d="M96 27.625V24.5H97.25H98.5V25.125V25.75H99.125H99.75V25.125V24.5H101.625H103.5V25.125V25.75H101.625H99.75V26.375V27H99.125H98.5V28.875V30.75H97.25H96V27.625Z" fill="#8589FF"></path>
<path d="M107.25 25.125V24.5H109.125H111V27V29.5H112.25H113.5V30.125V30.75H109.75H106V30.125V29.5H107.25H108.5V27.625V25.75H107.875H107.25V25.125ZM108.5 22.625V22H109.75H111V22.625V23.25H109.75H108.5V22.625Z" fill="#8589FF"></path>
<path d="M116 25.125V24.5H119.125H122.25V25.125V25.75H122.875H123.5V27.625V29.5H122.875H122.25V30.125V30.75H119.125H116V30.125V29.5H115.375H114.75V27.625V25.75H115.375H116V25.125ZM121 27.625V25.75H119.125H117.25V27.625V29.5H119.125H121V27.625Z" fill="#8589FF"></path>
<path d="M131 23.25V22H132.25H133.5V26.375V30.75H129.75H126V30.125V29.5H125.375H124.75V27.625V25.75H125.375H126V25.125V24.5H128.5H131V23.25ZM131 27.625V25.75H129.125H127.25V27.625V29.5H129.125H131V27.625Z" fill="#8589FF"></path>
</svg>
