<svg width="402" height="43" viewBox="0 0 402 43" fill="none" xmlns="http://www.w3.org/2000/svg">
<path d="M1 6.99999C1 3.68629 3.68629 1 7 1H193L220 36H395C398.314 36 401 38.6863 401 42V43H1V6.99999Z" fill="#0A0C25"></path>
<path d="M67.1429 12.5714V11H73.4286H79.7143V12.5714V14.1429H81.2857H82.8571V15.7143V17.2857H79.7143H76.5714V15.7143V14.1429H73.4286H70.2857V17.2857V20.4286H76.5714H82.8571V22V23.5714H84.4286H86V26.7143V29.8571H84.4286H82.8571V31.4286V33H75H67.1429V31.4286V29.8571H65.5714H64V28.2857V26.7143H67.1429H70.2857V28.2857V29.8571H75H79.7143V26.7143V23.5714H73.4286H67.1429V22V20.4286H65.5714H64V17.2857V14.1429H65.5714H67.1429V12.5714Z" fill="#AFFE00"></path>
<path d="M92.2857 12.5714V11H101.714H111.143V12.5714V14.1429H108H104.857V23.5714V33H101.714H98.5714V23.5714V14.1429H95.4286H92.2857V12.5714Z" fill="#AFFE00"></path>
<path d="M114.286 22V11H125.286H136.286V12.5714V14.1429H128.429H120.571V17.2857V20.4286H126.857H133.143V22V23.5714H126.857H120.571V26.7143V29.8571H128.429H136.286V31.4286V33H125.286H114.286V22Z" fill="#AFFE00"></path>
<path d="M139.429 22V11H148.857H158.286V12.5714V14.1429H159.857H161.429V18.8571V23.5714H159.857H158.286V25.1429V26.7143H152H145.714V29.8571V33H142.571H139.429V22ZM155.143 18.8571V14.1429H150.429H145.714V18.8571V23.5714H150.429H155.143V18.8571Z" fill="#AFFE00"></path>
<path fill-rule="evenodd" clip-rule="evenodd" d="M10.0576 12.1828H11.2404V11H24.9608V12.1828H26.1436V31.8172H24.9608V33H11.2404V31.8172H10.0576V12.1828ZM14.3157 22.828H15.4985V27.5591H20.7028V22.828H21.8856V21.172H20.7028V16.4409H15.4985V21.172H14.3157V22.828ZM14.5522 15.4946H21.649V20.2258H22.8318V21.4086H25.1974V13.129H24.0146V11.9462H12.1866V13.129H11.0039V21.4086H13.3694V20.2258H14.5522V15.4946ZM12.1866 13.129V14.3118H13.3694V15.4946H14.5522V14.3118H13.3694V13.129H12.1866ZM24.0146 13.129H22.8318V14.3118H21.649V15.4946H22.8318V14.3118H24.0146V13.129ZM21.649 28.5054H14.5522V23.7742H13.3694V22.5914H11.0039V30.871H12.1866V32.0538H24.0146V30.871H25.1974V22.5914H22.8318V23.7742H21.649V28.5054ZM24.0146 30.871V29.6882H22.8318V28.5054H21.649V29.6882H22.8318V30.871H24.0146ZM12.1866 30.871H13.3694V29.6882H14.5522V28.5054H13.3694V29.6882H12.1866V30.871ZM31.7074 11H46.6106V12.1828H47.7934V22.3548H45.4278V23.5376H44.245V24.7204H37.1483V27.5591H45.4278V28.7419H46.6106V29.9247H47.7934V33H32.8902V31.8172H31.7074V21.6452H34.073V20.4624H35.2558V19.2796H42.3526V16.4409H34.073V15.2581H32.8902V14.0753H31.7074V11ZM43.2988 15.4946V20.2258H36.202V21.4086H35.0192V22.5914H32.6536V30.871H33.8364V32.0538H46.8472V30.871H45.6644V29.6882H44.4816V28.5054H36.202V23.7742H43.2988V22.5914H44.4816V21.4086H46.8472V13.129H45.6644V11.9462H32.6536V13.129H33.8364V14.3118H35.0192V15.4946H43.2988ZM45.6644 13.129H44.4816V14.3118H43.2988V15.4946H44.4816V14.3118H45.6644V13.129ZM44.4816 21.4086V20.2258H43.2988V21.4086H44.4816ZM36.202 23.7742V22.5914H35.0192V23.7742H36.202ZM36.202 28.5054H35.0192V29.6882H33.8364V30.871H35.0192V29.6882H36.202V28.5054Z" fill="#AFFE00"></path>
<path d="M1 43V6.99999C1 3.68629 3.68629 1 7 1H193L220 36H395C398.314 36 401 38.6863 401 42V43" stroke="#4E51B3"></path>
<path d="M230.321 26L220 13.0989V10H222.679L235.479 26H230.321Z" fill="url('#paint0_linear_577_65')"></path>
<path d="M239.321 26H245.479L232.679 10H226.521L239.321 26Z" fill="url('#paint1_linear_577_65')"></path>
<path d="M236.521 10L249.321 26H255.479L242.679 10H236.521Z" fill="url('#paint2_linear_577_65')"></path>
<path d="M246.521 10L259.321 26H265.479L252.679 10H246.521Z" fill="url('#paint3_linear_577_65')"></path>
<path d="M256.521 10L269.321 26H275.479L262.679 10H256.521Z" fill="url('#paint4_linear_577_65')"></path>
<path d="M266.521 10L279.321 26H285.479L272.679 10H266.521Z" fill="url('#paint5_linear_577_65')"></path>
<path d="M276.521 10L289.321 26H295.479L282.679 10H276.521Z" fill="url('#paint6_linear_577_65')"></path>
<path d="M286.521 10L299.321 26H305.479L292.679 10H286.521Z" fill="url('#paint7_linear_577_65')"></path>
<path d="M296.521 10L309.321 26H315.479L302.679 10H296.521Z" fill="url('#paint8_linear_577_65')"></path>
<path d="M306.521 10L319.321 26H325.479L312.679 10H306.521Z" fill="url('#paint9_linear_577_65')"></path>
<path d="M316.521 10L329.321 26H335.479L322.679 10H316.521Z" fill="url('#paint10_linear_577_65')"></path>
<path d="M326.521 10L339.321 26H345.479L332.679 10H326.521Z" fill="url('#paint11_linear_577_65')"></path>
<path d="M336.521 10L349.321 26H355.479L342.679 10H336.521Z" fill="url('#paint12_linear_577_65')"></path>
<path d="M346.521 10L359.321 26H365.479L352.679 10H346.521Z" fill="url('#paint13_linear_577_65')"></path>
<path d="M356.521 10L369.321 26H375.479L362.679 10H356.521Z" fill="url('#paint14_linear_577_65')"></path>
<path d="M366.521 10L379.321 26H384V22.9013L373.679 10H366.521Z" fill="url('#paint15_linear_577_65')"></path>
<path d="M377.521 10L384 18.0989V10H377.521Z" fill="url('#paint16_linear_577_65')"></path>
<defs>
<linearGradient id="paint0_linear_577_65" x1="220" y1="10" x2="393.5" y2="10" gradientUnits="userSpaceOnUse">
<stop stop-color="#4D50B3"></stop>
<stop offset="1" stop-color="#4D50B3" stop-opacity="0"></stop>
</linearGradient>
<linearGradient id="paint1_linear_577_65" x1="220" y1="10" x2="393.5" y2="10" gradientUnits="userSpaceOnUse">
<stop stop-color="#4D50B3"></stop>
<stop offset="1" stop-color="#4D50B3" stop-opacity="0"></stop>
</linearGradient>
<linearGradient id="paint2_linear_577_65" x1="220" y1="10" x2="393.5" y2="10" gradientUnits="userSpaceOnUse">
<stop stop-color="#4D50B3"></stop>
<stop offset="1" stop-color="#4D50B3" stop-opacity="0"></stop>
</linearGradient>
<linearGradient id="paint3_linear_577_65" x1="220" y1="10" x2="393.5" y2="10" gradientUnits="userSpaceOnUse">
<stop stop-color="#4D50B3"></stop>
<stop offset="1" stop-color="#4D50B3" stop-opacity="0"></stop>
</linearGradient>
<linearGradient id="paint4_linear_577_65" x1="220" y1="10" x2="393.5" y2="10" gradientUnits="userSpaceOnUse">
<stop stop-color="#4D50B3"></stop>
<stop offset="1" stop-color="#4D50B3" stop-opacity="0"></stop>
</linearGradient>
<linearGradient id="paint5_linear_577_65" x1="220" y1="10" x2="393.5" y2="10" gradientUnits="userSpaceOnUse">
<stop stop-color="#4D50B3"></stop>
<stop offset="1" stop-color="#4D50B3" stop-opacity="0"></stop>
</linearGradient>
<linearGradient id="paint6_linear_577_65" x1="220" y1="10" x2="393.5" y2="10" gradientUnits="userSpaceOnUse">
<stop stop-color="#4D50B3"></stop>
<stop offset="1" stop-color="#4D50B3" stop-opacity="0"></stop>
</linearGradient>
<linearGradient id="paint7_linear_577_65" x1="220" y1="10" x2="393.5" y2="10" gradientUnits="userSpaceOnUse">
<stop stop-color="#4D50B3"></stop>
<stop offset="1" stop-color="#4D50B3" stop-opacity="0"></stop>
</linearGradient>
<linearGradient id="paint8_linear_577_65" x1="220" y1="10" x2="393.5" y2="10" gradientUnits="userSpaceOnUse">
<stop stop-color="#4D50B3"></stop>
<stop offset="1" stop-color="#4D50B3" stop-opacity="0"></stop>
</linearGradient>
<linearGradient id="paint9_linear_577_65" x1="220" y1="10" x2="393.5" y2="10" gradientUnits="userSpaceOnUse">
<stop stop-color="#4D50B3"></stop>
<stop offset="1" stop-color="#4D50B3" stop-opacity="0"></stop>
</linearGradient>
<linearGradient id="paint10_linear_577_65" x1="220" y1="10" x2="393.5" y2="10" gradientUnits="userSpaceOnUse">
<stop stop-color="#4D50B3"></stop>
<stop offset="1" stop-color="#4D50B3" stop-opacity="0"></stop>
</linearGradient>
<linearGradient id="paint11_linear_577_65" x1="220" y1="10" x2="393.5" y2="10" gradientUnits="userSpaceOnUse">
<stop stop-color="#4D50B3"></stop>
<stop offset="1" stop-color="#4D50B3" stop-opacity="0"></stop>
</linearGradient>
<linearGradient id="paint12_linear_577_65" x1="220" y1="10" x2="393.5" y2="10" gradientUnits="userSpaceOnUse">
<stop stop-color="#4D50B3"></stop>
<stop offset="1" stop-color="#4D50B3" stop-opacity="0"></stop>
</linearGradient>
<linearGradient id="paint13_linear_577_65" x1="220" y1="10" x2="393.5" y2="10" gradientUnits="userSpaceOnUse">
<stop stop-color="#4D50B3"></stop>
<stop offset="1" stop-color="#4D50B3" stop-opacity="0"></stop>
</linearGradient>
<linearGradient id="paint14_linear_577_65" x1="220" y1="10" x2="393.5" y2="10" gradientUnits="userSpaceOnUse">
<stop stop-color="#4D50B3"></stop>
<stop offset="1" stop-color="#4D50B3" stop-opacity="0"></stop>
</linearGradient>
<linearGradient id="paint15_linear_577_65" x1="220" y1="10" x2="393.5" y2="10" gradientUnits="userSpaceOnUse">
<stop stop-color="#4D50B3"></stop>
<stop offset="1" stop-color="#4D50B3" stop-opacity="0"></stop>
</linearGradient>
<linearGradient id="paint16_linear_577_65" x1="220" y1="10" x2="393.5" y2="10" gradientUnits="userSpaceOnUse">
<stop stop-color="#4D50B3"></stop>
<stop offset="1" stop-color="#4D50B3" stop-opacity="0"></stop>
</linearGradient>
</defs>
</svg>
