<svg width="402" height="9" viewBox="0 0 402 9" fill="none" xmlns="http://www.w3.org/2000/svg">
<path d="M1 0H401V1C401 4.31371 398.314 7 395 7H6.99999C3.68629 7 1 4.31371 1 1L1 0Z" fill="#0A0C25"></path>
<path d="M1 0L1 1C1 4.31371 3.68629 7 6.99999 7H395C398.314 7 401 4.31371 401 1V0" stroke="#4D50B3" stroke-width="1px"></path>
<path fill-rule="evenodd" clip-rule="evenodd" d="M41.5 2L38 6.5H145.5L151.5 9H358.5L364 6H168L164 4H111.5V2H41.5ZM42 3H44V6H42V3ZM72 3H74V6H72V3ZM67 3H69V6H67V3ZM97 3H99V6H97V3ZM107 3H109V6H107V3ZM47 3H49V6H47V3ZM77 3H79V6H77V3ZM52 3H54V6H52V3ZM82 3H84V6H82V3ZM57 3H59V6H57V3ZM87 3H89V6H87V3ZM62 3H64V6H62V3ZM92 3H94V6H92V3ZM102 3H104V6H102V3Z" fill="#4D50B3"></path>
</svg>
